  0
SECTION
  2
BLOCKS
  0
ENDSEC
  0
SECTION
  2
ENTITIES
  0
LINE
  8
0
 10
-33.5
 20
-33.8
 11
-33.4904
 21
-33.996
  0
LINE
  8
0
 10
-33.4904
 20
-33.996
 11
-33.4616
 21
-34.1902
  0
LINE
  8
0
 10
-33.4616
 20
-34.1902
 11
-33.4139
 21
-34.3806
  0
LINE
  8
0
 10
-33.4139
 20
-34.3806
 11
-33.3478
 21
-34.5654
  0
LINE
  8
0
 10
-33.3478
 20
-34.5654
 11
-33.2638
 21
-34.7428
  0
LINE
  8
0
 10
-33.2638
 20
-34.7428
 11
-33.1629
 21
-34.9111
  0
LINE
  8
0
 10
-33.1629
 20
-34.9111
 11
-33.046
 21
-35.0688
  0
LINE
  8
0
 10
-33.046
 20
-35.0688
 11
-32.9142
 21
-35.2142
  0
LINE
  8
0
 10
-32.9142
 20
-35.2142
 11
-32.7688
 21
-35.346
  0
LINE
  8
0
 10
-32.7688
 20
-35.346
 11
-32.6111
 21
-35.4629
  0
LINE
  8
0
 10
-32.6111
 20
-35.4629
 11
-32.4428
 21
-35.5638
  0
LINE
  8
0
 10
-32.4428
 20
-35.5638
 11
-32.2654
 21
-35.6478
  0
LINE
  8
0
 10
-32.2654
 20
-35.6478
 11
-32.0806
 21
-35.7139
  0
LINE
  8
0
 10
-32.0806
 20
-35.7139
 11
-31.8902
 21
-35.7616
  0
LINE
  8
0
 10
-31.8902
 20
-35.7616
 11
-31.696
 21
-35.7904
  0
LINE
  8
0
 10
-31.696
 20
-35.7904
 11
-31.5
 21
-35.8
  0
LINE
  8
0
 10
-31.5
 20
-35.8
 11
31.5
 21
-35.8
  0
LINE
  8
0
 10
31.5
 20
-35.8
 11
31.696
 21
-35.7904
  0
LINE
  8
0
 10
31.696
 20
-35.7904
 11
31.8902
 21
-35.7616
  0
LINE
  8
0
 10
31.8902
 20
-35.7616
 11
32.0806
 21
-35.7139
  0
LINE
  8
0
 10
32.0806
 20
-35.7139
 11
32.2654
 21
-35.6478
  0
LINE
  8
0
 10
32.2654
 20
-35.6478
 11
32.4428
 21
-35.5638
  0
LINE
  8
0
 10
32.4428
 20
-35.5638
 11
32.6111
 21
-35.4629
  0
LINE
  8
0
 10
32.6111
 20
-35.4629
 11
32.7688
 21
-35.346
  0
LINE
  8
0
 10
32.7688
 20
-35.346
 11
32.9142
 21
-35.2142
  0
LINE
  8
0
 10
32.9142
 20
-35.2142
 11
33.046
 21
-35.0688
  0
LINE
  8
0
 10
33.046
 20
-35.0688
 11
33.1629
 21
-34.9111
  0
LINE
  8
0
 10
33.1629
 20
-34.9111
 11
33.2638
 21
-34.7428
  0
LINE
  8
0
 10
33.2638
 20
-34.7428
 11
33.3478
 21
-34.5654
  0
LINE
  8
0
 10
33.3478
 20
-34.5654
 11
33.4139
 21
-34.3806
  0
LINE
  8
0
 10
33.4139
 20
-34.3806
 11
33.4616
 21
-34.1902
  0
LINE
  8
0
 10
33.4616
 20
-34.1902
 11
33.4904
 21
-33.996
  0
LINE
  8
0
 10
33.4904
 20
-33.996
 11
33.5
 21
-33.8
  0
LINE
  8
0
 10
33.5
 20
-33.8
 11
33.5
 21
33.8
  0
LINE
  8
0
 10
33.5
 20
33.8
 11
33.4904
 21
33.996
  0
LINE
  8
0
 10
33.4904
 20
33.996
 11
33.4616
 21
34.1902
  0
LINE
  8
0
 10
33.4616
 20
34.1902
 11
33.4139
 21
34.3806
  0
LINE
  8
0
 10
33.4139
 20
34.3806
 11
33.3478
 21
34.5654
  0
LINE
  8
0
 10
33.3478
 20
34.5654
 11
33.2638
 21
34.7428
  0
LINE
  8
0
 10
33.2638
 20
34.7428
 11
33.1629
 21
34.9111
  0
LINE
  8
0
 10
33.1629
 20
34.9111
 11
33.046
 21
35.0688
  0
LINE
  8
0
 10
33.046
 20
35.0688
 11
32.9142
 21
35.2142
  0
LINE
  8
0
 10
32.9142
 20
35.2142
 11
32.7688
 21
35.346
  0
LINE
  8
0
 10
32.7688
 20
35.346
 11
32.6111
 21
35.4629
  0
LINE
  8
0
 10
32.6111
 20
35.4629
 11
32.4428
 21
35.5638
  0
LINE
  8
0
 10
32.4428
 20
35.5638
 11
32.2654
 21
35.6478
  0
LINE
  8
0
 10
32.2654
 20
35.6478
 11
32.0806
 21
35.7139
  0
LINE
  8
0
 10
32.0806
 20
35.7139
 11
31.8902
 21
35.7616
  0
LINE
  8
0
 10
31.8902
 20
35.7616
 11
31.696
 21
35.7904
  0
LINE
  8
0
 10
31.696
 20
35.7904
 11
31.5
 21
35.8
  0
LINE
  8
0
 10
31.5
 20
35.8
 11
-31.5
 21
35.8
  0
LINE
  8
0
 10
-31.5
 20
35.8
 11
-31.696
 21
35.7904
  0
LINE
  8
0
 10
-31.696
 20
35.7904
 11
-31.8902
 21
35.7616
  0
LINE
  8
0
 10
-31.8902
 20
35.7616
 11
-32.0806
 21
35.7139
  0
LINE
  8
0
 10
-32.0806
 20
35.7139
 11
-32.2654
 21
35.6478
  0
LINE
  8
0
 10
-32.2654
 20
35.6478
 11
-32.4428
 21
35.5638
  0
LINE
  8
0
 10
-32.4428
 20
35.5638
 11
-32.6111
 21
35.4629
  0
LINE
  8
0
 10
-32.6111
 20
35.4629
 11
-32.7688
 21
35.346
  0
LINE
  8
0
 10
-32.7688
 20
35.346
 11
-32.9142
 21
35.2142
  0
LINE
  8
0
 10
-32.9142
 20
35.2142
 11
-33.046
 21
35.0688
  0
LINE
  8
0
 10
-33.046
 20
35.0688
 11
-33.1629
 21
34.9111
  0
LINE
  8
0
 10
-33.1629
 20
34.9111
 11
-33.2638
 21
34.7428
  0
LINE
  8
0
 10
-33.2638
 20
34.7428
 11
-33.3478
 21
34.5654
  0
LINE
  8
0
 10
-33.3478
 20
34.5654
 11
-33.4139
 21
34.3806
  0
LINE
  8
0
 10
-33.4139
 20
34.3806
 11
-33.4616
 21
34.1902
  0
LINE
  8
0
 10
-33.4616
 20
34.1902
 11
-33.4904
 21
33.996
  0
LINE
  8
0
 10
-33.4904
 20
33.996
 11
-33.5
 21
33.8
  0
LINE
  8
0
 10
-33.5
 20
33.8
 11
-33.5
 21
-33.8
  0
LINE
  8
0
 10
-30
 20
-32
 11
-29.9904
 21
-31.804
  0
LINE
  8
0
 10
-29.9904
 20
-31.804
 11
-29.9616
 21
-31.6098
  0
LINE
  8
0
 10
-29.9616
 20
-31.6098
 11
-29.9139
 21
-31.4194
  0
LINE
  8
0
 10
-29.9139
 20
-31.4194
 11
-29.8478
 21
-31.2346
  0
LINE
  8
0
 10
-29.8478
 20
-31.2346
 11
-29.7638
 21
-31.0572
  0
LINE
  8
0
 10
-29.7638
 20
-31.0572
 11
-29.6629
 21
-30.8889
  0
LINE
  8
0
 10
-29.6629
 20
-30.8889
 11
-29.546
 21
-30.7312
  0
LINE
  8
0
 10
-29.546
 20
-30.7312
 11
-29.4142
 21
-30.5858
  0
LINE
  8
0
 10
-29.4142
 20
-30.5858
 11
-29.2688
 21
-30.454
  0
LINE
  8
0
 10
-29.2688
 20
-30.454
 11
-29.1111
 21
-30.3371
  0
LINE
  8
0
 10
-29.1111
 20
-30.3371
 11
-28.9428
 21
-30.2362
  0
LINE
  8
0
 10
-28.9428
 20
-30.2362
 11
-28.7654
 21
-30.1522
  0
LINE
  8
0
 10
-28.7654
 20
-30.1522
 11
-28.5806
 21
-30.0861
  0
LINE
  8
0
 10
-28.5806
 20
-30.0861
 11
-28.3902
 21
-30.0384
  0
LINE
  8
0
 10
-28.3902
 20
-30.0384
 11
-28.196
 21
-30.0096
  0
LINE
  8
0
 10
-28.196
 20
-30.0096
 11
-28
 21
-30
  0
LINE
  8
0
 10
-28
 20
-30
 11
-27.804
 21
-30.0096
  0
LINE
  8
0
 10
-27.804
 20
-30.0096
 11
-27.6098
 21
-30.0384
  0
LINE
  8
0
 10
-27.6098
 20
-30.0384
 11
-27.4194
 21
-30.0861
  0
LINE
  8
0
 10
-27.4194
 20
-30.0861
 11
-27.2346
 21
-30.1522
  0
LINE
  8
0
 10
-27.2346
 20
-30.1522
 11
-27.0572
 21
-30.2362
  0
LINE
  8
0
 10
-27.0572
 20
-30.2362
 11
-26.8889
 21
-30.3371
  0
LINE
  8
0
 10
-26.8889
 20
-30.3371
 11
-26.7312
 21
-30.454
  0
LINE
  8
0
 10
-26.7312
 20
-30.454
 11
-26.5858
 21
-30.5858
  0
LINE
  8
0
 10
-26.5858
 20
-30.5858
 11
-26.454
 21
-30.7312
  0
LINE
  8
0
 10
-26.454
 20
-30.7312
 11
-26.3371
 21
-30.8889
  0
LINE
  8
0
 10
-26.3371
 20
-30.8889
 11
-26.2362
 21
-31.0572
  0
LINE
  8
0
 10
-26.2362
 20
-31.0572
 11
-26.1522
 21
-31.2346
  0
LINE
  8
0
 10
-26.1522
 20
-31.2346
 11
-26.0861
 21
-31.4194
  0
LINE
  8
0
 10
-26.0861
 20
-31.4194
 11
-26.0384
 21
-31.6098
  0
LINE
  8
0
 10
-26.0384
 20
-31.6098
 11
-26.0096
 21
-31.804
  0
LINE
  8
0
 10
-26.0096
 20
-31.804
 11
-26
 21
-32
  0
LINE
  8
0
 10
-26
 20
-32
 11
-26.0096
 21
-32.196
  0
LINE
  8
0
 10
-26.0096
 20
-32.196
 11
-26.0384
 21
-32.3902
  0
LINE
  8
0
 10
-26.0384
 20
-32.3902
 11
-26.0861
 21
-32.5806
  0
LINE
  8
0
 10
-26.0861
 20
-32.5806
 11
-26.1522
 21
-32.7654
  0
LINE
  8
0
 10
-26.1522
 20
-32.7654
 11
-26.2362
 21
-32.9428
  0
LINE
  8
0
 10
-26.2362
 20
-32.9428
 11
-26.3371
 21
-33.1111
  0
LINE
  8
0
 10
-26.3371
 20
-33.1111
 11
-26.454
 21
-33.2688
  0
LINE
  8
0
 10
-26.454
 20
-33.2688
 11
-26.5858
 21
-33.4142
  0
LINE
  8
0
 10
-26.5858
 20
-33.4142
 11
-26.7312
 21
-33.546
  0
LINE
  8
0
 10
-26.7312
 20
-33.546
 11
-26.8889
 21
-33.6629
  0
LINE
  8
0
 10
-26.8889
 20
-33.6629
 11
-27.0572
 21
-33.7638
  0
LINE
  8
0
 10
-27.0572
 20
-33.7638
 11
-27.2346
 21
-33.8478
  0
LINE
  8
0
 10
-27.2346
 20
-33.8478
 11
-27.4194
 21
-33.9139
  0
LINE
  8
0
 10
-27.4194
 20
-33.9139
 11
-27.6098
 21
-33.9616
  0
LINE
  8
0
 10
-27.6098
 20
-33.9616
 11
-27.804
 21
-33.9904
  0
LINE
  8
0
 10
-27.804
 20
-33.9904
 11
-28
 21
-34
  0
LINE
  8
0
 10
-28
 20
-34
 11
-28.196
 21
-33.9904
  0
LINE
  8
0
 10
-28.196
 20
-33.9904
 11
-28.3902
 21
-33.9616
  0
LINE
  8
0
 10
-28.3902
 20
-33.9616
 11
-28.5806
 21
-33.9139
  0
LINE
  8
0
 10
-28.5806
 20
-33.9139
 11
-28.7654
 21
-33.8478
  0
LINE
  8
0
 10
-28.7654
 20
-33.8478
 11
-28.9428
 21
-33.7638
  0
LINE
  8
0
 10
-28.9428
 20
-33.7638
 11
-29.1111
 21
-33.6629
  0
LINE
  8
0
 10
-29.1111
 20
-33.6629
 11
-29.2688
 21
-33.546
  0
LINE
  8
0
 10
-29.2688
 20
-33.546
 11
-29.4142
 21
-33.4142
  0
LINE
  8
0
 10
-29.4142
 20
-33.4142
 11
-29.546
 21
-33.2688
  0
LINE
  8
0
 10
-29.546
 20
-33.2688
 11
-29.6629
 21
-33.1111
  0
LINE
  8
0
 10
-29.6629
 20
-33.1111
 11
-29.7638
 21
-32.9428
  0
LINE
  8
0
 10
-29.7638
 20
-32.9428
 11
-29.8478
 21
-32.7654
  0
LINE
  8
0
 10
-29.8478
 20
-32.7654
 11
-29.9139
 21
-32.5806
  0
LINE
  8
0
 10
-29.9139
 20
-32.5806
 11
-29.9616
 21
-32.3902
  0
LINE
  8
0
 10
-29.9616
 20
-32.3902
 11
-29.9904
 21
-32.196
  0
LINE
  8
0
 10
-29.9904
 20
-32.196
 11
-30
 21
-32
  0
LINE
  8
0
 10
-30
 20
32
 11
-29.9904
 21
32.196
  0
LINE
  8
0
 10
-29.9904
 20
32.196
 11
-29.9616
 21
32.3902
  0
LINE
  8
0
 10
-29.9616
 20
32.3902
 11
-29.9139
 21
32.5806
  0
LINE
  8
0
 10
-29.9139
 20
32.5806
 11
-29.8478
 21
32.7654
  0
LINE
  8
0
 10
-29.8478
 20
32.7654
 11
-29.7638
 21
32.9428
  0
LINE
  8
0
 10
-29.7638
 20
32.9428
 11
-29.6629
 21
33.1111
  0
LINE
  8
0
 10
-29.6629
 20
33.1111
 11
-29.546
 21
33.2688
  0
LINE
  8
0
 10
-29.546
 20
33.2688
 11
-29.4142
 21
33.4142
  0
LINE
  8
0
 10
-29.4142
 20
33.4142
 11
-29.2688
 21
33.546
  0
LINE
  8
0
 10
-29.2688
 20
33.546
 11
-29.1111
 21
33.6629
  0
LINE
  8
0
 10
-29.1111
 20
33.6629
 11
-28.9428
 21
33.7638
  0
LINE
  8
0
 10
-28.9428
 20
33.7638
 11
-28.7654
 21
33.8478
  0
LINE
  8
0
 10
-28.7654
 20
33.8478
 11
-28.5806
 21
33.9139
  0
LINE
  8
0
 10
-28.5806
 20
33.9139
 11
-28.3902
 21
33.9616
  0
LINE
  8
0
 10
-28.3902
 20
33.9616
 11
-28.196
 21
33.9904
  0
LINE
  8
0
 10
-28.196
 20
33.9904
 11
-28
 21
34
  0
LINE
  8
0
 10
-28
 20
34
 11
-27.804
 21
33.9904
  0
LINE
  8
0
 10
-27.804
 20
33.9904
 11
-27.6098
 21
33.9616
  0
LINE
  8
0
 10
-27.6098
 20
33.9616
 11
-27.4194
 21
33.9139
  0
LINE
  8
0
 10
-27.4194
 20
33.9139
 11
-27.2346
 21
33.8478
  0
LINE
  8
0
 10
-27.2346
 20
33.8478
 11
-27.0572
 21
33.7638
  0
LINE
  8
0
 10
-27.0572
 20
33.7638
 11
-26.8889
 21
33.6629
  0
LINE
  8
0
 10
-26.8889
 20
33.6629
 11
-26.7312
 21
33.546
  0
LINE
  8
0
 10
-26.7312
 20
33.546
 11
-26.5858
 21
33.4142
  0
LINE
  8
0
 10
-26.5858
 20
33.4142
 11
-26.454
 21
33.2688
  0
LINE
  8
0
 10
-26.454
 20
33.2688
 11
-26.3371
 21
33.1111
  0
LINE
  8
0
 10
-26.3371
 20
33.1111
 11
-26.2362
 21
32.9428
  0
LINE
  8
0
 10
-26.2362
 20
32.9428
 11
-26.1522
 21
32.7654
  0
LINE
  8
0
 10
-26.1522
 20
32.7654
 11
-26.0861
 21
32.5806
  0
LINE
  8
0
 10
-26.0861
 20
32.5806
 11
-26.0384
 21
32.3902
  0
LINE
  8
0
 10
-26.0384
 20
32.3902
 11
-26.0096
 21
32.196
  0
LINE
  8
0
 10
-26.0096
 20
32.196
 11
-26
 21
32
  0
LINE
  8
0
 10
-26
 20
32
 11
-26.0096
 21
31.804
  0
LINE
  8
0
 10
-26.0096
 20
31.804
 11
-26.0384
 21
31.6098
  0
LINE
  8
0
 10
-26.0384
 20
31.6098
 11
-26.0861
 21
31.4194
  0
LINE
  8
0
 10
-26.0861
 20
31.4194
 11
-26.1522
 21
31.2346
  0
LINE
  8
0
 10
-26.1522
 20
31.2346
 11
-26.2362
 21
31.0572
  0
LINE
  8
0
 10
-26.2362
 20
31.0572
 11
-26.3371
 21
30.8889
  0
LINE
  8
0
 10
-26.3371
 20
30.8889
 11
-26.454
 21
30.7312
  0
LINE
  8
0
 10
-26.454
 20
30.7312
 11
-26.5858
 21
30.5858
  0
LINE
  8
0
 10
-26.5858
 20
30.5858
 11
-26.7312
 21
30.454
  0
LINE
  8
0
 10
-26.7312
 20
30.454
 11
-26.8889
 21
30.3371
  0
LINE
  8
0
 10
-26.8889
 20
30.3371
 11
-27.0572
 21
30.2362
  0
LINE
  8
0
 10
-27.0572
 20
30.2362
 11
-27.2346
 21
30.1522
  0
LINE
  8
0
 10
-27.2346
 20
30.1522
 11
-27.4194
 21
30.0861
  0
LINE
  8
0
 10
-27.4194
 20
30.0861
 11
-27.6098
 21
30.0384
  0
LINE
  8
0
 10
-27.6098
 20
30.0384
 11
-27.804
 21
30.0096
  0
LINE
  8
0
 10
-27.804
 20
30.0096
 11
-28
 21
30
  0
LINE
  8
0
 10
-28
 20
30
 11
-28.196
 21
30.0096
  0
LINE
  8
0
 10
-28.196
 20
30.0096
 11
-28.3902
 21
30.0384
  0
LINE
  8
0
 10
-28.3902
 20
30.0384
 11
-28.5806
 21
30.0861
  0
LINE
  8
0
 10
-28.5806
 20
30.0861
 11
-28.7654
 21
30.1522
  0
LINE
  8
0
 10
-28.7654
 20
30.1522
 11
-28.9428
 21
30.2362
  0
LINE
  8
0
 10
-28.9428
 20
30.2362
 11
-29.1111
 21
30.3371
  0
LINE
  8
0
 10
-29.1111
 20
30.3371
 11
-29.2688
 21
30.454
  0
LINE
  8
0
 10
-29.2688
 20
30.454
 11
-29.4142
 21
30.5858
  0
LINE
  8
0
 10
-29.4142
 20
30.5858
 11
-29.546
 21
30.7312
  0
LINE
  8
0
 10
-29.546
 20
30.7312
 11
-29.6629
 21
30.8889
  0
LINE
  8
0
 10
-29.6629
 20
30.8889
 11
-29.7638
 21
31.0572
  0
LINE
  8
0
 10
-29.7638
 20
31.0572
 11
-29.8478
 21
31.2346
  0
LINE
  8
0
 10
-29.8478
 20
31.2346
 11
-29.9139
 21
31.4194
  0
LINE
  8
0
 10
-29.9139
 20
31.4194
 11
-29.9616
 21
31.6098
  0
LINE
  8
0
 10
-29.9616
 20
31.6098
 11
-29.9904
 21
31.804
  0
LINE
  8
0
 10
-29.9904
 20
31.804
 11
-30
 21
32
  0
LINE
  8
0
 10
26
 20
-32
 11
26.0096
 21
-31.804
  0
LINE
  8
0
 10
26.0096
 20
-31.804
 11
26.0384
 21
-31.6098
  0
LINE
  8
0
 10
26.0384
 20
-31.6098
 11
26.0861
 21
-31.4194
  0
LINE
  8
0
 10
26.0861
 20
-31.4194
 11
26.1522
 21
-31.2346
  0
LINE
  8
0
 10
26.1522
 20
-31.2346
 11
26.2362
 21
-31.0572
  0
LINE
  8
0
 10
26.2362
 20
-31.0572
 11
26.3371
 21
-30.8889
  0
LINE
  8
0
 10
26.3371
 20
-30.8889
 11
26.454
 21
-30.7312
  0
LINE
  8
0
 10
26.454
 20
-30.7312
 11
26.5858
 21
-30.5858
  0
LINE
  8
0
 10
26.5858
 20
-30.5858
 11
26.7312
 21
-30.454
  0
LINE
  8
0
 10
26.7312
 20
-30.454
 11
26.8889
 21
-30.3371
  0
LINE
  8
0
 10
26.8889
 20
-30.3371
 11
27.0572
 21
-30.2362
  0
LINE
  8
0
 10
27.0572
 20
-30.2362
 11
27.2346
 21
-30.1522
  0
LINE
  8
0
 10
27.2346
 20
-30.1522
 11
27.4194
 21
-30.0861
  0
LINE
  8
0
 10
27.4194
 20
-30.0861
 11
27.6098
 21
-30.0384
  0
LINE
  8
0
 10
27.6098
 20
-30.0384
 11
27.804
 21
-30.0096
  0
LINE
  8
0
 10
27.804
 20
-30.0096
 11
28
 21
-30
  0
LINE
  8
0
 10
28
 20
-30
 11
28.196
 21
-30.0096
  0
LINE
  8
0
 10
28.196
 20
-30.0096
 11
28.3902
 21
-30.0384
  0
LINE
  8
0
 10
28.3902
 20
-30.0384
 11
28.5806
 21
-30.0861
  0
LINE
  8
0
 10
28.5806
 20
-30.0861
 11
28.7654
 21
-30.1522
  0
LINE
  8
0
 10
28.7654
 20
-30.1522
 11
28.9428
 21
-30.2362
  0
LINE
  8
0
 10
28.9428
 20
-30.2362
 11
29.1111
 21
-30.3371
  0
LINE
  8
0
 10
29.1111
 20
-30.3371
 11
29.2688
 21
-30.454
  0
LINE
  8
0
 10
29.2688
 20
-30.454
 11
29.4142
 21
-30.5858
  0
LINE
  8
0
 10
29.4142
 20
-30.5858
 11
29.546
 21
-30.7312
  0
LINE
  8
0
 10
29.546
 20
-30.7312
 11
29.6629
 21
-30.8889
  0
LINE
  8
0
 10
29.6629
 20
-30.8889
 11
29.7638
 21
-31.0572
  0
LINE
  8
0
 10
29.7638
 20
-31.0572
 11
29.8478
 21
-31.2346
  0
LINE
  8
0
 10
29.8478
 20
-31.2346
 11
29.9139
 21
-31.4194
  0
LINE
  8
0
 10
29.9139
 20
-31.4194
 11
29.9616
 21
-31.6098
  0
LINE
  8
0
 10
29.9616
 20
-31.6098
 11
29.9904
 21
-31.804
  0
LINE
  8
0
 10
29.9904
 20
-31.804
 11
30
 21
-32
  0
LINE
  8
0
 10
30
 20
-32
 11
29.9904
 21
-32.196
  0
LINE
  8
0
 10
29.9904
 20
-32.196
 11
29.9616
 21
-32.3902
  0
LINE
  8
0
 10
29.9616
 20
-32.3902
 11
29.9139
 21
-32.5806
  0
LINE
  8
0
 10
29.9139
 20
-32.5806
 11
29.8478
 21
-32.7654
  0
LINE
  8
0
 10
29.8478
 20
-32.7654
 11
29.7638
 21
-32.9428
  0
LINE
  8
0
 10
29.7638
 20
-32.9428
 11
29.6629
 21
-33.1111
  0
LINE
  8
0
 10
29.6629
 20
-33.1111
 11
29.546
 21
-33.2688
  0
LINE
  8
0
 10
29.546
 20
-33.2688
 11
29.4142
 21
-33.4142
  0
LINE
  8
0
 10
29.4142
 20
-33.4142
 11
29.2688
 21
-33.546
  0
LINE
  8
0
 10
29.2688
 20
-33.546
 11
29.1111
 21
-33.6629
  0
LINE
  8
0
 10
29.1111
 20
-33.6629
 11
28.9428
 21
-33.7638
  0
LINE
  8
0
 10
28.9428
 20
-33.7638
 11
28.7654
 21
-33.8478
  0
LINE
  8
0
 10
28.7654
 20
-33.8478
 11
28.5806
 21
-33.9139
  0
LINE
  8
0
 10
28.5806
 20
-33.9139
 11
28.3902
 21
-33.9616
  0
LINE
  8
0
 10
28.3902
 20
-33.9616
 11
28.196
 21
-33.9904
  0
LINE
  8
0
 10
28.196
 20
-33.9904
 11
28
 21
-34
  0
LINE
  8
0
 10
28
 20
-34
 11
27.804
 21
-33.9904
  0
LINE
  8
0
 10
27.804
 20
-33.9904
 11
27.6098
 21
-33.9616
  0
LINE
  8
0
 10
27.6098
 20
-33.9616
 11
27.4194
 21
-33.9139
  0
LINE
  8
0
 10
27.4194
 20
-33.9139
 11
27.2346
 21
-33.8478
  0
LINE
  8
0
 10
27.2346
 20
-33.8478
 11
27.0572
 21
-33.7638
  0
LINE
  8
0
 10
27.0572
 20
-33.7638
 11
26.8889
 21
-33.6629
  0
LINE
  8
0
 10
26.8889
 20
-33.6629
 11
26.7312
 21
-33.546
  0
LINE
  8
0
 10
26.7312
 20
-33.546
 11
26.5858
 21
-33.4142
  0
LINE
  8
0
 10
26.5858
 20
-33.4142
 11
26.454
 21
-33.2688
  0
LINE
  8
0
 10
26.454
 20
-33.2688
 11
26.3371
 21
-33.1111
  0
LINE
  8
0
 10
26.3371
 20
-33.1111
 11
26.2362
 21
-32.9428
  0
LINE
  8
0
 10
26.2362
 20
-32.9428
 11
26.1522
 21
-32.7654
  0
LINE
  8
0
 10
26.1522
 20
-32.7654
 11
26.0861
 21
-32.5806
  0
LINE
  8
0
 10
26.0861
 20
-32.5806
 11
26.0384
 21
-32.3902
  0
LINE
  8
0
 10
26.0384
 20
-32.3902
 11
26.0096
 21
-32.196
  0
LINE
  8
0
 10
26.0096
 20
-32.196
 11
26
 21
-32
  0
LINE
  8
0
 10
26
 20
32
 11
26.0096
 21
32.196
  0
LINE
  8
0
 10
26.0096
 20
32.196
 11
26.0384
 21
32.3902
  0
LINE
  8
0
 10
26.0384
 20
32.3902
 11
26.0861
 21
32.5806
  0
LINE
  8
0
 10
26.0861
 20
32.5806
 11
26.1522
 21
32.7654
  0
LINE
  8
0
 10
26.1522
 20
32.7654
 11
26.2362
 21
32.9428
  0
LINE
  8
0
 10
26.2362
 20
32.9428
 11
26.3371
 21
33.1111
  0
LINE
  8
0
 10
26.3371
 20
33.1111
 11
26.454
 21
33.2688
  0
LINE
  8
0
 10
26.454
 20
33.2688
 11
26.5858
 21
33.4142
  0
LINE
  8
0
 10
26.5858
 20
33.4142
 11
26.7312
 21
33.546
  0
LINE
  8
0
 10
26.7312
 20
33.546
 11
26.8889
 21
33.6629
  0
LINE
  8
0
 10
26.8889
 20
33.6629
 11
27.0572
 21
33.7638
  0
LINE
  8
0
 10
27.0572
 20
33.7638
 11
27.2346
 21
33.8478
  0
LINE
  8
0
 10
27.2346
 20
33.8478
 11
27.4194
 21
33.9139
  0
LINE
  8
0
 10
27.4194
 20
33.9139
 11
27.6098
 21
33.9616
  0
LINE
  8
0
 10
27.6098
 20
33.9616
 11
27.804
 21
33.9904
  0
LINE
  8
0
 10
27.804
 20
33.9904
 11
28
 21
34
  0
LINE
  8
0
 10
28
 20
34
 11
28.196
 21
33.9904
  0
LINE
  8
0
 10
28.196
 20
33.9904
 11
28.3902
 21
33.9616
  0
LINE
  8
0
 10
28.3902
 20
33.9616
 11
28.5806
 21
33.9139
  0
LINE
  8
0
 10
28.5806
 20
33.9139
 11
28.7654
 21
33.8478
  0
LINE
  8
0
 10
28.7654
 20
33.8478
 11
28.9428
 21
33.7638
  0
LINE
  8
0
 10
28.9428
 20
33.7638
 11
29.1111
 21
33.6629
  0
LINE
  8
0
 10
29.1111
 20
33.6629
 11
29.2688
 21
33.546
  0
LINE
  8
0
 10
29.2688
 20
33.546
 11
29.4142
 21
33.4142
  0
LINE
  8
0
 10
29.4142
 20
33.4142
 11
29.546
 21
33.2688
  0
LINE
  8
0
 10
29.546
 20
33.2688
 11
29.6629
 21
33.1111
  0
LINE
  8
0
 10
29.6629
 20
33.1111
 11
29.7638
 21
32.9428
  0
LINE
  8
0
 10
29.7638
 20
32.9428
 11
29.8478
 21
32.7654
  0
LINE
  8
0
 10
29.8478
 20
32.7654
 11
29.9139
 21
32.5806
  0
LINE
  8
0
 10
29.9139
 20
32.5806
 11
29.9616
 21
32.3902
  0
LINE
  8
0
 10
29.9616
 20
32.3902
 11
29.9904
 21
32.196
  0
LINE
  8
0
 10
29.9904
 20
32.196
 11
30
 21
32
  0
LINE
  8
0
 10
30
 20
32
 11
29.9904
 21
31.804
  0
LINE
  8
0
 10
29.9904
 20
31.804
 11
29.9616
 21
31.6098
  0
LINE
  8
0
 10
29.9616
 20
31.6098
 11
29.9139
 21
31.4194
  0
LINE
  8
0
 10
29.9139
 20
31.4194
 11
29.8478
 21
31.2346
  0
LINE
  8
0
 10
29.8478
 20
31.2346
 11
29.7638
 21
31.0572
  0
LINE
  8
0
 10
29.7638
 20
31.0572
 11
29.6629
 21
30.8889
  0
LINE
  8
0
 10
29.6629
 20
30.8889
 11
29.546
 21
30.7312
  0
LINE
  8
0
 10
29.546
 20
30.7312
 11
29.4142
 21
30.5858
  0
LINE
  8
0
 10
29.4142
 20
30.5858
 11
29.2688
 21
30.454
  0
LINE
  8
0
 10
29.2688
 20
30.454
 11
29.1111
 21
30.3371
  0
LINE
  8
0
 10
29.1111
 20
30.3371
 11
28.9428
 21
30.2362
  0
LINE
  8
0
 10
28.9428
 20
30.2362
 11
28.7654
 21
30.1522
  0
LINE
  8
0
 10
28.7654
 20
30.1522
 11
28.5806
 21
30.0861
  0
LINE
  8
0
 10
28.5806
 20
30.0861
 11
28.3902
 21
30.0384
  0
LINE
  8
0
 10
28.3902
 20
30.0384
 11
28.196
 21
30.0096
  0
LINE
  8
0
 10
28.196
 20
30.0096
 11
28
 21
30
  0
LINE
  8
0
 10
28
 20
30
 11
27.804
 21
30.0096
  0
LINE
  8
0
 10
27.804
 20
30.0096
 11
27.6098
 21
30.0384
  0
LINE
  8
0
 10
27.6098
 20
30.0384
 11
27.4194
 21
30.0861
  0
LINE
  8
0
 10
27.4194
 20
30.0861
 11
27.2346
 21
30.1522
  0
LINE
  8
0
 10
27.2346
 20
30.1522
 11
27.0572
 21
30.2362
  0
LINE
  8
0
 10
27.0572
 20
30.2362
 11
26.8889
 21
30.3371
  0
LINE
  8
0
 10
26.8889
 20
30.3371
 11
26.7312
 21
30.454
  0
LINE
  8
0
 10
26.7312
 20
30.454
 11
26.5858
 21
30.5858
  0
LINE
  8
0
 10
26.5858
 20
30.5858
 11
26.454
 21
30.7312
  0
LINE
  8
0
 10
26.454
 20
30.7312
 11
26.3371
 21
30.8889
  0
LINE
  8
0
 10
26.3371
 20
30.8889
 11
26.2362
 21
31.0572
  0
LINE
  8
0
 10
26.2362
 20
31.0572
 11
26.1522
 21
31.2346
  0
LINE
  8
0
 10
26.1522
 20
31.2346
 11
26.0861
 21
31.4194
  0
LINE
  8
0
 10
26.0861
 20
31.4194
 11
26.0384
 21
31.6098
  0
LINE
  8
0
 10
26.0384
 20
31.6098
 11
26.0096
 21
31.804
  0
LINE
  8
0
 10
26.0096
 20
31.804
 11
26
 21
32
  0
ENDSEC
  0
SECTION
  2
OBJECTS
  0
DICTIONARY
  0
ENDSEC
  0
EOF
